<svg width="24" height="24" viewBox="0 0 24 24" fill="none" xmlns="http://www.w3.org/2000/svg">
<g clip-path="url(#clip0_1479_968)">
<path d="M7.9999 23.1999C8.88356 23.1999 9.5999 22.4836 9.5999 21.5999C9.5999 20.7163 8.88356 19.9999 7.9999 19.9999C7.11625 19.9999 6.3999 20.7163 6.3999 21.5999C6.3999 22.4836 7.11625 23.1999 7.9999 23.1999Z" fill="#737373"/>
<path d="M19.2001 23.1999C20.0838 23.1999 20.8001 22.4836 20.8001 21.5999C20.8001 20.7163 20.0838 19.9999 19.2001 19.9999C18.3164 19.9999 17.6001 20.7163 17.6001 21.5999C17.6001 22.4836 18.3164 23.1999 19.2001 23.1999Z" fill="#737373"/>
<path d="M22.4 4.79994H4.656L4 1.43994C3.9626 1.25652 3.86206 1.09202 3.71589 0.975079C3.56971 0.858139 3.38716 0.796163 3.2 0.799937H0V2.39994H2.544L5.6 17.7599C5.6374 17.9434 5.73794 18.1079 5.88411 18.2248C6.03029 18.3417 6.21284 18.4037 6.4 18.3999H20.8V16.7999H7.056L6.4 13.5999H20.8C20.9849 13.6045 21.1657 13.5447 21.3116 13.431C21.4574 13.3172 21.5594 13.1564 21.6 12.9759L23.2 5.77594C23.2268 5.65724 23.2262 5.53399 23.1982 5.41556C23.1702 5.29714 23.1155 5.18667 23.0384 5.09255C22.9612 4.99844 22.8636 4.92316 22.753 4.87246C22.6424 4.82175 22.5217 4.79695 22.4 4.79994ZM20.16 11.9999H6.096L4.976 6.39994H21.4L20.16 11.9999Z" fill="#737373"/>
</g>
<defs>
<clipPath id="clip0_1479_968">
<rect width="24" height="22.4002" fill="white" transform="translate(0 0.799774)"/>
</clipPath>
</defs>
</svg>
