<svg width="20" height="20" viewBox="0 0 20 20" fill="none" xmlns="http://www.w3.org/2000/svg">
<path d="M19.1367 7.41243C19.079 7.24262 18.9729 7.09341 18.8314 6.98322C18.6899 6.87303 18.5193 6.80669 18.3405 6.79238L13.1114 6.37688L10.8485 1.36786C10.7765 1.20653 10.6593 1.0695 10.511 0.97332C10.3628 0.877135 10.1899 0.825903 10.0132 0.825806C9.83655 0.825709 9.6636 0.876751 9.51527 0.972773C9.36695 1.0688 9.24958 1.20569 9.17734 1.36694L6.91452 6.37688L1.68537 6.79238C1.50968 6.8063 1.34172 6.87054 1.20158 6.97742C1.06144 7.08429 0.955065 7.22928 0.895169 7.39503C0.835274 7.56079 0.8244 7.74028 0.863848 7.91205C0.903295 8.08383 0.991394 8.24059 1.11761 8.36361L4.98191 12.1307L3.61523 18.0487C3.57374 18.2278 3.58704 18.4153 3.65341 18.5868C3.71978 18.7583 3.83616 18.9058 3.98745 19.0103C4.13874 19.1149 4.31794 19.1715 4.50182 19.1729C4.68569 19.1743 4.86574 19.1204 5.0186 19.0182L10.0129 15.6886L15.0073 19.0182C15.1635 19.1219 15.3478 19.1753 15.5353 19.1712C15.7228 19.1671 15.9045 19.1057 16.056 18.9952C16.2076 18.8847 16.3217 18.7305 16.3829 18.5532C16.4442 18.376 16.4497 18.1842 16.3987 18.0037L14.7211 12.1334L18.8817 8.38929C19.1541 8.14347 19.2541 7.76007 19.1367 7.41243Z" fill="#F3CD03"/>
</svg>
